<svg xmlns="http://www.w3.org/2000/svg" xmlns:xlink="http://www.w3.org/1999/xlink" width="560" height="384.712" viewBox="0 0 560 384.712"><defs><clipPath id="a"><path d="M453.5,493.081c.311,2.569.311,8.953,1.791,11.523,3.192,1.246,8.564-.389,12.223-2.8,3.659-2.336,7.163-1.246,12.223-2.647,4.983-1.4,8.642-4.126,8.953-6.54.311-2.647-8.875-1.4-15.26-1.246a27.407,27.407,0,0,1-11.678-1.869Z" transform="translate(-453.5 -489.5)"/></clipPath><clipPath id="d"><path d="M358.691,515.178c-.7,2.491-3.192,8.253-2.8,11.211,2.414,2.414,7.941,2.959,12.223,2.18,4.2-.779,7.007,1.635,12.223,2.336,5.061.7,9.5-.389,10.666-2.491,1.324-2.258-7.474-4.749-13.469-7.085a28.155,28.155,0,0,1-9.966-6.228Z" transform="translate(-355.847 -515.1)"/></clipPath><linearGradient id="g" x1="0.002" y1="0.913" x2="1.003" y2="0.913" gradientUnits="objectBoundingBox"><stop offset="0" stop-color="#36b7e2" stop-opacity="0.702"/><stop offset="0.511" stop-color="#83d0ed" stop-opacity="0.855"/><stop offset="1" stop-color="#d0e9f9"/></linearGradient><linearGradient id="h" x1="0.047" y1="0.584" x2="1.092" y2="1.456" gradientUnits="objectBoundingBox"><stop offset="0" stop-color="#2f3464"/><stop offset="0.156" stop-color="#272a5b"/><stop offset="0.696" stop-color="#0f0b3e"/><stop offset="1" stop-color="#060033"/></linearGradient><linearGradient id="i" x1="-0.327" y1="-282.157" x2="96.89" y2="154.324" xlink:href="#h"/><linearGradient id="j" x1="-0.355" y1="11.72" x2="-0.301" y2="12.193" gradientUnits="objectBoundingBox"><stop offset="0" stop-color="#13133a"/><stop offset="0.451" stop-color="#14133d"/><stop offset="0.818" stop-color="#191447"/><stop offset="0.928" stop-color="#1b154c"/></linearGradient><linearGradient id="k" x1="0.01" y1="10.225" x2="-0.3" y2="9.258" xlink:href="#h"/></defs><g transform="translate(-83.474 -45.1)"><ellipse cx="175.876" cy="176.449" rx="175.876" ry="176.449" transform="translate(184.268 45.1)" fill="#d0e9f9" opacity="0.31"/><g transform="translate(512.561 285.08)"><path d="M632.57,468.832a172.053,172.053,0,0,1,.467-20.242c2.881-32.466,16.194-55.667,34.957-71.16s43.054-23.357,68.046-25.147a167.854,167.854,0,0,1,26.549.234.821.821,0,0,1,.779.934v.078c-.156,1.869-8.953,85.408-61.973,115.3Z" transform="translate(-632.465 -351.867)" fill="#d0d3ea" fill-rule="evenodd"/><path d="M759.461,358.211a.9.9,0,0,1,1.09.467.938.938,0,0,1-.467,1.09c-.078,0-9.031,3.348-22.345,10.9,4.594.779,14.948,2.725,19.464,4.2a.942.942,0,0,1,.545,1.012.856.856,0,0,1-1.012.545c-5.294-1.713-19.152-4.126-21.255-4.516-5.761,3.348-12.223,7.4-19.152,12.3l35.969,9.421a.84.84,0,1,1-.389,1.635l-37.293-9.81c-6.384,4.671-13.158,9.966-19.931,16.038,7.4,2.258,42.821,13.158,48.66,16.116a.818.818,0,1,1-.7,1.479c-5.995-3.114-44.923-14.948-49.36-16.272a229.07,229.07,0,0,0-16.272,16.272l55.433,17.673a.813.813,0,0,1-.467,1.557l-56.134-17.907c-4.2,4.671-8.331,9.654-12.3,14.948,9.031,3.036,55.277,17.44,55.433,17.518a.813.813,0,1,1-.467,1.557c-.156-.078-48.193-15.026-55.9-17.673-3.426,4.593-6.773,9.5-9.966,14.559,10.9,5.372,47.648,14.948,47.726,14.948a.829.829,0,0,1,.623,1.012.868.868,0,0,1-1.012.623c-.078,0-37.215-9.654-48.193-15.182-2.024,3.27-4.049,6.7-5.917,10.277,2.8,1.09,11.912,4.593,21.255,7.241h-5.761c-7.63-2.414-14.248-4.983-16.35-5.761-1.012,1.869-2.024,3.815-2.958,5.761h-1.791c1.168-2.336,2.336-4.594,3.5-6.851-2.414-6.7-3.893-20.476-3.971-20.554a.8.8,0,0,1,.7-.934.862.862,0,0,1,.934.7s1.324,11.834,3.348,18.763c1.869-3.348,3.737-6.618,5.683-9.81a156.9,156.9,0,0,1-5.528-30.909.818.818,0,1,1,1.635-.078,158.308,158.308,0,0,0,5.061,29.2q4.671-7.357,9.576-14.014c-1.012-2.958-6.929-20.943-7.4-33.634a.818.818,0,1,1,1.635-.078c.467,11.445,5.372,27.249,6.929,32.077q5.956-7.825,12.145-14.715c-8.486-17.985-8.642-32.154-8.642-32.232a.853.853,0,0,1,.779-.856.915.915,0,0,1,.856.779s.156,13.547,8.175,30.909c5.372-5.917,10.9-11.367,16.35-16.35-3.5-7.941-6.929-28.729-7.007-28.807a.826.826,0,1,1,1.635-.234c0,.078,3.27,19.775,6.618,27.872a234.65,234.65,0,0,1,20.242-16.272,95.977,95.977,0,0,1-2.336-21.8.818.818,0,1,1,1.635.078,90.023,90.023,0,0,0,2.1,20.71c7.007-4.983,13.625-9.187,19.464-12.613a61.751,61.751,0,0,1-.234-11.912.818.818,0,1,1,1.635.078,54.779,54.779,0,0,0,.156,10.9C749.962,361.715,759.383,358.211,759.461,358.211Z" transform="translate(-634.086 -353.203)" fill="#fff" fill-rule="evenodd"/></g><path d="M219.9,395.61h0a1.86,1.86,0,0,1-.389,1.09,2.125,2.125,0,0,1-.934.7c-55.978,16.038-89.69-12.068-109.465-44.533-19.542-32.077-25.381-68.435-25.615-70.148v-.156a1.98,1.98,0,0,1,.311-1.324,1.669,1.669,0,0,1,1.168-.7h0c4.36-.623,8.72-1.09,13.158-1.324,4.36-.234,8.72-.389,13.08-.234a137.992,137.992,0,0,1,37.6,5.917,105.284,105.284,0,0,1,31.142,15.571,90.515,90.515,0,0,1,25.537,29.2c6.228,11.133,10.666,24.291,12.846,39.706.623,4.126,1.012,8.408,1.246,12.846a107.666,107.666,0,0,1,.311,13.391ZM85.6,283.342c.389,2.258,1.4,7.863,3.426,15.571,4.749-1.791,15.493-4.36,20.165-5.45A186.706,186.706,0,0,0,85.6,283.342Zm3.893,17.206c1.4,5.294,3.27,11.367,5.606,17.985l37.449-11.912c-7.552-4.749-14.637-8.72-20.865-11.912-2.18.389-16.661,3.737-22.189,5.839Zm6.228,19.62a194.7,194.7,0,0,0,10.2,23.123c6.151-3.5,42.743-16.817,50.45-19.62a235.322,235.322,0,0,0-21.955-15.8l-38.694,12.3Zm11.056,24.6c1.246,2.336,2.647,4.749,4.048,7.085,2.336,3.815,4.827,7.552,7.474,11.133a.241.241,0,0,1,.156-.078l57.457-21.722c-5.995-5.917-12.068-11.367-18.062-16.272-4.516,1.635-44.923,16.272-51.073,19.853Zm12.613,19.62a105.378,105.378,0,0,0,13.936,14.948c.078-.078.234-.156.311-.234.156-.078,48.115-17.751,57.535-21.488-4.516-5.372-9.109-10.433-13.78-15.1l-58,21.877Zm15.338,16.194a84.3,84.3,0,0,0,18.763,12.146c.078-.156.311-.389.467-.389.078,0,38.3-12.068,49.594-18.374-3.659-5.216-7.4-10.121-11.289-14.87-7.552,3.036-52.475,19.62-57.535,21.488Zm20.787,13a79.305,79.305,0,0,0,18.607,5.45.92.92,0,0,1,.7-.7c12.768-1.946,32.154-10.588,36.514-12.613-2.18-3.581-4.516-7.085-6.851-10.51-10.121,5.917-42.821,16.428-48.971,18.374Zm22.5,5.995c11.6,1.324,24.6.311,39.161-3.737-1.557-2.881-3.192-5.761-4.9-8.564-3.737,1.713-21.255,9.576-34.256,12.3Zm40.1-5.683c.078-4.048,0-7.941-.234-11.756-.234-4.36-.7-8.642-1.246-12.69-.078-.623-.156-1.168-.234-1.713-.389,4.827-1.246,13.391-2.8,18.374,1.479,2.491,3.036,5.138,4.516,7.786Zm-2.569-30.6a116.258,116.258,0,0,0-5.683-20.242,171.791,171.791,0,0,1-4.126,30.987q3.387,4.9,6.54,10.043c1.791-7.4,2.569-19.931,2.569-19.931a.925.925,0,0,1,.7-.856Zm-6.773-23.045c-1.479-3.426-3.036-6.7-4.749-9.81-1.4-2.569-2.959-4.983-4.516-7.318-.156,13.391-5.138,31.609-5.995,34.646,3.737,4.516,7.4,9.265,10.9,14.248a167.768,167.768,0,0,0,3.815-31.064.748.748,0,0,1,.545-.7ZM198.1,321.18a88.738,88.738,0,0,0-12.145-13.625c0,3.348-.467,16.817-7.4,33.634,4.593,4.671,9.187,9.576,13.547,14.87,1.4-5.216,5.761-22.189,5.606-34.257a.932.932,0,0,1,.389-.623Zm-13.7-14.87c-1.791-1.557-3.581-3.036-5.528-4.438a100.5,100.5,0,0,0-14.092-8.642c-.311,2.725-2.647,22.422-5.761,30.442,5.995,4.9,12.145,10.355,18.14,16.35,7.552-18.763,7.007-33.089,7.007-33.089a2.634,2.634,0,0,1,.234-.623Zm-21.177-13.858a98.293,98.293,0,0,0-14.87-5.839q-5.722-1.752-11.678-3.036a103.643,103.643,0,0,1-1.246,22.89A269.91,269.91,0,0,1,157.613,322.5c3.114-8.72,5.45-29.741,5.45-29.819.156-.078.156-.156.156-.234Zm-28.184-9.187a139.035,139.035,0,0,0-22.734-2.414,62.27,62.27,0,0,1,.389,12.457c6.384,3.27,13.547,7.318,21.255,12.223a98.86,98.86,0,0,0,1.09-21.955c-.078-.156-.078-.234,0-.311Zm-36.67-2.258c-3.737.234-7.4.623-11.133,1.09A189.066,189.066,0,0,1,110.9,292.373a60.347,60.347,0,0,0-.467-11.445v-.156C106.462,280.7,102.413,280.773,98.365,281.006Z" transform="translate(0 -50.977)" fill="#c2c2c2" fill-rule="evenodd"/><g transform="translate(551.672 214.636)"><path d="M700.84,392.77c2.336-9.732,8.486-26.938,24.758-47.959,25.848-33.244,40.952-69.914,23.59-81.359-17.05-11.211-54.655,37.916-66.489,128.773A92.766,92.766,0,0,0,700.84,392.77Z" transform="translate(-682.7 -261.874)" fill="#8896ca" fill-rule="evenodd"/><path d="M692.871,390.374a20.889,20.889,0,0,1,7.007-1.635.43.43,0,1,0-.078-.856,21.074,21.074,0,0,0-6.773,1.557c.234-1.557.467-3.036.779-4.516,1.479-.623,6.229-2.569,8.1-3.192a.444.444,0,1,0-.234-.856c-1.713.545-5.761,2.18-7.63,2.958.467-2.8,1.012-5.45,1.557-8.1a105.052,105.052,0,0,1,11.133-3.426.444.444,0,0,0-.234-.856c-4.671,1.168-8.876,2.569-10.744,3.192.545-2.647,1.168-5.294,1.713-7.786a155.945,155.945,0,0,1,15.96-4.827.444.444,0,1,0-.234-.856,129.47,129.47,0,0,0-15.415,4.671c.779-3.348,1.635-6.54,2.491-9.654,2.024-.856,10.51-4.438,17.751-4.9a.39.39,0,0,0,.389-.467.5.5,0,0,0-.467-.467c-6.7.389-14.481,3.426-17.362,4.671,1.09-3.815,2.18-7.474,3.348-10.978,2.881-.934,14.559-4.516,21.255-2.8a.444.444,0,1,0,.234-.856c-6.54-1.635-17.362,1.4-21.177,2.569,1.246-3.737,2.491-7.241,3.737-10.588a99.96,99.96,0,0,1,21.255-.7.43.43,0,1,0,.078-.856,93.611,93.611,0,0,0-21.021.623c.779-1.946,1.557-3.893,2.336-5.761a99.963,99.963,0,0,1,24.369-.623.43.43,0,0,0,.078-.856,104.95,104.95,0,0,0-24.057.545c1.869-4.36,3.815-8.486,5.683-12.223,2.8-.156,17.05-.779,25.3.856.234.078.467-.078.545-.389.078-.234-.078-.467-.389-.545-7.941-1.557-21.177-1.09-24.992-.934,1.09-2.18,2.258-4.282,3.348-6.228a136.59,136.59,0,0,1,24.369,1.246.474.474,0,1,0,.156-.934,128.577,128.577,0,0,0-23.979-1.246c2.647-4.593,5.216-8.564,7.708-12.068,2.336-.311,12.691-1.635,21.488-.311a.474.474,0,1,0,.156-.934c-8.019-1.246-17.44-.311-20.865.156q1.518-2.1,3.036-3.971a73.919,73.919,0,0,1,17.751-2.18.467.467,0,1,0,0-.934,69.636,69.636,0,0,0-16.817,1.946c7.941-9.888,13.7-13.858,13.781-13.936a.67.67,0,0,0-.779-1.09,55.653,55.653,0,0,0-6.618,5.839,48.088,48.088,0,0,1,2.024-5.761.406.406,0,0,0-.078-.623.471.471,0,0,0-.623.078c-.623.779-2.18,5.917-2.725,7.708q-2.453,2.569-5.372,6.073l.934-10.043a.43.43,0,0,0-.856-.078l-1.09,11.445c-1.324,1.635-2.725,3.5-4.126,5.45l.7-11.756a.43.43,0,1,0-.856-.078l-.779,13.235c-2.1,3.036-4.282,6.384-6.462,10.121L720.51,290.8a.467.467,0,1,0-.934,0l.078,13.391c-1.012,1.713-2.024,3.581-2.958,5.45l-.234-10.588a.467.467,0,1,0-.934,0l.311,12.3c-1.869,3.581-3.659,7.474-5.45,11.6l-1.012-10.043a.39.39,0,0,0-.467-.389c-.234.078-.467.234-.389.467l1.168,11.678c-.7,1.635-1.4,3.426-2.1,5.138l-1.324-7.474c0-.234-.311-.389-.545-.389s-.389.311-.389.545l1.557,8.953c-1.246,3.27-2.491,6.773-3.737,10.433l-1.713-8.253a.474.474,0,0,0-.934.156l2.024,9.81c-1.012,3.192-2.1,6.54-3.036,10.043l-1.791-7.163a.444.444,0,0,0-.856.234l2.18,8.72c-.856,3.036-1.635,6.228-2.491,9.5l-2.336-6.228a.47.47,0,1,0-.856.389l2.881,7.474c-.545,2.414-1.09,4.827-1.635,7.318l-2.725-5.061a.421.421,0,0,0-.623-.156.408.408,0,0,0-.156.623l3.27,5.995c-.467,2.336-.934,4.671-1.4,7.085L691,379.162a.454.454,0,0,0-.779.467l2.491,4.048c-.312,1.791-.623,3.659-.934,5.45l-2.491-2.258a.44.44,0,1,0-.623.623l2.958,2.647c-.234,1.557-.467,3.036-.7,4.593.467,0,.934.078,1.4.078A43.133,43.133,0,0,1,692.871,390.374Z" transform="translate(-683.996 -263.76)" fill="#fff" fill-rule="evenodd"/></g><g transform="translate(108.957 296.69)"><path d="M256.108,466.061c-9.187-7.786-27.327-19.931-58.08-28.651-48.582-13.78-89.3-38.383-80.658-61.817,8.486-22.967,79.8-2.336,155.789,77.077A108.51,108.51,0,0,1,256.108,466.061Z" transform="translate(-116.205 -366.779)" fill="#8896ca" fill-rule="evenodd"/><path d="M264.3,456.775a25.8,25.8,0,0,0-7.941,3.348.561.561,0,1,1-.623-.934,27.622,27.622,0,0,1,7.63-3.348c-1.324-1.324-2.647-2.569-3.971-3.815-1.869.467-7.863,1.946-10.043,2.647a.567.567,0,0,1-.311-1.09c2.024-.7,7.085-1.946,9.421-2.491-2.414-2.336-4.9-4.593-7.318-6.7a127.756,127.756,0,0,0-13.158,4.671c-.311.078-.623,0-.7-.311s0-.623.311-.7c5.372-2.258,10.355-3.815,12.613-4.516q-3.62-3.27-7.241-6.306a197.3,197.3,0,0,0-18.841,6.618c-.311.078-.623,0-.7-.311s0-.623.311-.7a180.407,180.407,0,0,1,18.218-6.462c-3.114-2.647-6.228-5.138-9.265-7.552-2.569.623-13.313,3.192-20.554,7.863a.561.561,0,1,1-.623-.934c6.773-4.36,16.428-7.007,20.087-7.863-3.737-2.958-7.4-5.683-10.978-8.253-3.426,1.168-17.206,5.995-22.5,12.457a.553.553,0,1,1-.856-.7c5.138-6.228,17.829-10.978,22.267-12.535-3.815-2.725-7.552-5.216-11.133-7.552a113.742,113.742,0,0,0-21.021,14.481.592.592,0,0,1-.779,0,.526.526,0,0,1,.078-.779,115.117,115.117,0,0,1,20.71-14.325c-2.18-1.4-4.282-2.647-6.306-3.893-2.336,1.168-12.068,6.306-23.98,16.739a.553.553,0,1,1-.7-.856A132.165,132.165,0,0,1,200,406.091c-4.9-2.881-9.654-5.45-14.17-7.786-2.8,1.869-17.05,11.367-23.824,18.841a.551.551,0,0,1-.779-.779c6.54-7.163,19.7-16.116,23.512-18.685-2.647-1.324-5.216-2.491-7.708-3.581a157.014,157.014,0,0,0-22.89,18.685.551.551,0,0,1-.779-.779,164.566,164.566,0,0,1,22.267-18.3,153.786,153.786,0,0,0-16.038-6.151c-2.414,1.324-13.469,7.474-20.943,15.026a.551.551,0,0,1-.779-.779c6.851-6.929,16.661-12.69,20.242-14.715-2.024-.623-3.893-1.246-5.761-1.713a82.185,82.185,0,0,0-18.685,10.588.553.553,0,0,1-.7-.856,90.013,90.013,0,0,1,17.6-10.121c-14.715-3.893-23.123-3.659-23.2-3.659a.818.818,0,1,1-.078-1.635,68.86,68.86,0,0,1,10.51.934,60.484,60.484,0,0,0-6.073-4.126.567.567,0,0,1,.311-1.09c1.09.311,6.306,4.2,8.1,5.528,2.8.467,5.917,1.168,9.5,2.024l-7.941-9.031a.526.526,0,0,1,.078-.779.592.592,0,0,1,.779,0l9.187,10.277c2.414.7,5.061,1.479,7.863,2.336l-9.031-10.822a.59.59,0,0,1,.078-.779.6.6,0,0,1,.779.078l10.121,12.223c4.2,1.4,8.642,3.114,13.469,5.216l-8.331-11.523a.553.553,0,1,1,.856-.7l9.5,13c2.18,1.012,4.438,2.024,6.773,3.114l-7.318-10.433a.561.561,0,0,1,.934-.623l8.408,12.068c4.36,2.18,8.876,4.594,13.547,7.318l-6.151-10.433a.561.561,0,1,1,.934-.623L201.319,405c1.869,1.09,3.737,2.258,5.683,3.5l-4.048-8.1a.605.605,0,0,1,.234-.779.491.491,0,0,1,.7.234l4.9,9.732c3.581,2.258,7.241,4.749,10.978,7.4l-4.2-9.187a.542.542,0,0,1,1.012-.389l5.061,10.9c3.27,2.336,6.7,4.827,10.043,7.552l-3.348-8.253c-.078-.311,0-.623.311-.7s.623,0,.7.311l4.126,10.043c3.036,2.336,6.073,4.827,9.109,7.4l-2.1-7.708a.567.567,0,0,1,1.09-.311l2.569,9.265c2.258,1.869,4.516,3.893,6.773,5.917l-.934-6.773a.551.551,0,0,1,1.09-.156l1.168,8.1q3.153,2.8,6.306,5.839l-.389-4.438a.551.551,0,1,1,1.09-.156l.467,5.683c1.557,1.479,3.192,3.036,4.827,4.671l.779-3.971a.519.519,0,1,1,1.012.234l-.934,4.671,3.971,3.971c-.389.389-.856.7-1.246,1.09Z" transform="translate(-118.484 -368.159)" fill="#fff" fill-rule="evenodd"/></g><path d="M599.628,197.017s-37.994,10.822-49.828,15.571c0,0,20.787,3.036,21.1,10.277s95.918,46.013,95.918,46.013,15.415-2.024,23.357-6.54c0,0-11.211-38.772-12.3-47.1-1.012-8.253-6.228-6.929-8.953-7.941s-17.673-4.983-21.177-6.073-14.4-5.294-17.829-4.36C626.566,198.03,599.628,197.017,599.628,197.017Z" transform="translate(-101.598 -33.143)" fill="#3a86c6"/><g transform="translate(182.323 367.73)"><path d="M287.465,491.25c-5.761-2.491-15.727-5.528-30.052-5.372-24.291.234-47.1-6.228-47.414-19.464-.389-12.768,34.1-13.158,81.359,14.4l-3.893,10.433Z" transform="translate(-209.996 -458.025)" fill="#d0d3ea" fill-rule="evenodd"/><path d="M218.331,468.216a.826.826,0,0,1-.234-1.635,63.021,63.021,0,0,1,7.318-.467l-4.282-2.024a.522.522,0,1,1,.467-.934l6.384,3.036c2.18,0,4.671.156,7.4.389l-4.671-3.27a.561.561,0,0,1,.623-.934l6.306,4.36c2.881.311,5.995.7,9.265,1.324l-3.971-2.958a.553.553,0,1,1,.7-.856l5.761,4.36a101.327,101.327,0,0,1,11.055,2.881l-3.426-3.27a.551.551,0,1,1,.779-.779l5.138,4.827c3.659,1.246,7.4,2.647,11.289,4.36l-1.557-2.336a.561.561,0,0,1,.934-.623l2.569,3.815c2.958,1.4,5.917,2.881,8.953,4.593l-1.479-2.414a.561.561,0,0,1,.934-.623l2.569,4.126c1.479.856,2.958,1.791,4.438,2.725l-.545,1.557c-1.479-.934-2.958-1.869-4.438-2.725-1.324.311-4.516,1.09-5.761,1.946a.553.553,0,1,1-.7-.856,17.567,17.567,0,0,1,5.061-1.869c-1.168-.7-2.336-1.324-3.5-1.946a22.468,22.468,0,0,0-6.384,3.114.553.553,0,0,1-.7-.856,23.85,23.85,0,0,1,5.761-2.959c-2.414-1.246-4.749-2.336-7.085-3.426-1.713,1.012-7.085,4.36-9.031,6.54a.6.6,0,0,1-.779.078.59.59,0,0,1-.078-.779c1.869-2.024,6.462-4.983,8.642-6.306-2.491-1.09-4.9-2.024-7.318-2.881a49.47,49.47,0,0,0-10.666,7.941.551.551,0,0,1-.779-.779,52.788,52.788,0,0,1,10.121-7.708l-3.5-1.168a51.3,51.3,0,0,0-13,9.265.551.551,0,0,1-.779-.779,53.256,53.256,0,0,1,12.3-8.876,97.82,97.82,0,0,0-11.756-2.8c-1.869,1.635-9.187,7.863-12.145,11.756a.553.553,0,0,1-.856-.7c2.8-3.581,9.031-9.109,11.6-11.367-2.725-.467-5.372-.856-7.786-1.09-1.635,1.713-7.708,8.019-9.109,9.654a.553.553,0,0,1-.856-.7c1.246-1.479,6.384-6.851,8.564-9.109a82.987,82.987,0,0,0-8.331-.389c-1.479,1.713-4.983,5.839-5.761,6.929a.52.52,0,0,1-.779.078.526.526,0,0,1-.078-.779c.7-.934,3.5-4.282,5.216-6.306C221.212,467.827,218.331,468.216,218.331,468.216Z" transform="translate(-211.632 -458.971)" fill="#f3fafd" fill-rule="evenodd"/></g><g transform="translate(447.645 165.071)"><path d="M612.223,201.234A1.707,1.707,0,0,0,611.6,201C612.223,201.389,612.456,201.545,612.223,201.234Z" transform="translate(-563.407 -199.209)" fill="#3176a9"/><path d="M595.791,224.7s-17.206-3.815-17.985-5.995-1.4-8.175-6.7-8.953c-4.9-.7,21.955-9.576,26.7-9.265-.623-.389-1.635-1.012-2.8-1.791-10.433,3.036-35.969,10.511-45.312,14.325,0,0,20.787,3.036,21.1,10.277,0,.623.856,1.557,2.258,2.647A83.615,83.615,0,0,0,595.791,224.7Z" transform="translate(-549.7 -198.7)" fill="#3176a9"/></g><g transform="translate(260.492 191.913)"><rect width="310.644" height="210.132" transform="translate(0)" fill="#fdc153"/><path d="M308.7,232.2,454.524,365.255a14.2,14.2,0,0,0,19.075,0L619.422,232.2Z" transform="translate(-308.7 -232.2)" fill="#e09733"/><path d="M663.622,455.973,508.3,293.8,663.622,442.115Z" transform="translate(-352.9 -245.841)" fill="#e09733"/><path d="M308.7,455.973,464.1,293.8,308.7,442.115Z" transform="translate(-308.7 -245.841)" fill="#e09733"/><path d="M308.7,232.2,452.344,353.5a18.153,18.153,0,0,0,23.512,0L619.422,232.2Z" transform="translate(-308.7 -232.2)" fill="#ffc755"/></g><path d="M654.392,271.717s-2.725,2.18-7.786-1.791c0,0,4.126,6.462,5.216,6.7,0,0-1.946,1.791-4.9-.934a28.947,28.947,0,0,1-3.815-3.971l4.438,8.72s-3.114,1.09-7.241-6.54l.234-3.659,2.024-4.126,2.024-.311Z" transform="translate(-121.978 -48.339)" fill="#9a958d" opacity="0.2"/><circle cx="8.876" cy="8.876" r="8.876" transform="matrix(0.316, -0.949, 0.949, 0.316, 404.535, 300.674)" fill="#e09733"/><path d="M205.43,228.57s-22.89,2.881-9.109,28.106c12.69,23.279,96.541,125.815,113.046,118.808s8.175,9.031,8.175,9.031-9.732,16.194-20.554,11.445S175.066,269.288,175.066,269.288L164.4,225.3Z" transform="translate(-17.921 -39.146)" fill="#d73633"/><path d="M499.754,442s11.756,14.248-7.085,23.824c0,0-18.763,20.4-38.616,23.357l-19.152-.467Z" transform="translate(-76.89 -86.746)" fill="#9a958d" fill-rule="evenodd" opacity="0.2"/><g transform="translate(127.888 52.994)"><g transform="translate(54.327 213.325)"><path d="M373.641,464.432s44.378,6.773,74.664-37.293l-33.089-43.833-5.138-6.773L376.989,332.7c-50.684,17.128-56.29,61.662-56.29,61.662s-2.8,55.745-74.975-51.307L210.3,369.837C210.222,369.759,276.555,460.383,373.641,464.432Z" transform="translate(-210.3 -328.861)" fill="#d73633"/><path d="M401.989,353.276c13.158,9.81,24.525,22.812,31.532,37.76,6.929,14.715,8.331,26,4.9,40.874-2.024,9.031-11.289,34.957-24.914,32.622,0,0,44.378,6.773,74.664-37.293L416.782,332.8A92.115,92.115,0,0,0,390.7,346.347,66.456,66.456,0,0,1,401.989,353.276Z" transform="translate(-250.248 -328.883)" fill="#871b17"/><g transform="translate(153.142)"><path d="M483.766,437.725a9.927,9.927,0,0,0,1.946-1.168l5.839-4.438a11.038,11.038,0,0,0,2.18-15.415L429.89,332.153a11.038,11.038,0,0,0-15.415-2.18l-5.839,4.438A10.4,10.4,0,0,0,407,335.968Z" transform="translate(-407 -327.769)" fill="#751414"/><path d="M457.246,379.334c4.749,9.265,10.043,19.853,10.666,30.442a27.059,27.059,0,0,1-.078,5.606l16.895,22.345a9.924,9.924,0,0,0,1.946-1.168l5.839-4.438a11.038,11.038,0,0,0,2.18-15.415l-63.842-84.551a11.038,11.038,0,0,0-15.415-2.18L411,333.4c7.4,3.27,13.936,8.408,20.165,13.469A99.339,99.339,0,0,1,457.246,379.334Z" transform="translate(-407.886 -327.769)" fill="#751414"/></g><path d="M482.113,439.544,406.516,339.5c-1.557.779-3.036,1.635-4.516,2.414L478.532,443.2C479.7,442.036,480.868,440.868,482.113,439.544Z" transform="translate(-252.751 -330.367)" fill="#ea5454"/><path d="M365,405.629l12.146,16.116c4.516-14.014,12.846-32.077,28.184-43.288A54.852,54.852,0,0,0,386.644,366C368.27,377.678,365,405.629,365,405.629Z" transform="translate(-244.557 -336.235)" fill="#ea5454"/></g><path d="M144.864,121.662S150.47,77.128,201.154,60l33.089,43.833,5.138,6.773,33.089,43.833c-30.286,44.144-74.664,37.293-74.664,37.293s-50.061-6.851,33.167,91.87l-35.424,26.782C195.548,310.462,122.208,216.178,144.864,121.662Z" transform="translate(-140.52 -56.293)" fill="#d73633"/><path d="M249.882,163.137c-5.839-15.338-15.26-29.819-27.639-40.641-12.223-10.666-22.734-15.1-37.994-15.96-9.265-.467-36.67,1.324-38.149,15.026,0,0,5.606-44.533,56.29-61.662l71.394,94.439a90.974,90.974,0,0,1-20.165,21.41A87.051,87.051,0,0,0,249.882,163.137Z" transform="translate(-141.756 -56.271)" fill="#751414"/><g transform="translate(47.087)"><path d="M201.1,63.661a10.4,10.4,0,0,1,1.635-1.557l5.839-4.438a10.968,10.968,0,0,1,15.415,2.18L287.831,144.4a10.968,10.968,0,0,1-2.18,15.415l-5.839,4.438a9.927,9.927,0,0,1-1.946,1.168Z" transform="translate(-201.022 -55.284)" fill="#751414"/><path d="M249.738,105.893c-7.63-7.085-16.35-15.026-26.315-18.607a25.462,25.462,0,0,0-5.45-1.4L201,63.461a10.4,10.4,0,0,1,1.635-1.557l5.839-4.438a10.968,10.968,0,0,1,15.415,2.18L287.731,144.2a10.968,10.968,0,0,1-2.18,15.415l-4.36,3.348c-1.09-8.019-4.282-15.649-7.474-23.045A95.556,95.556,0,0,0,249.738,105.893Z" transform="translate(-201 -55.239)" fill="#751414"/></g><path d="M200.516,66.9l75.6,100.044c-1.168,1.246-2.414,2.491-3.581,3.659L196,69.314C197.479,68.535,198.959,67.679,200.516,66.9Z" transform="translate(-152.806 -57.821)" fill="#ea5454"/><path d="M209.345,206.576,197.2,190.46c14.715-.467,34.412-3.581,49.283-15.26a56.777,56.777,0,0,1,6.929,21.41C237.14,211.014,209.345,206.576,209.345,206.576Z" transform="translate(-153.072 -81.804)" fill="#ea5454"/></g><g transform="translate(367.411 383.438)"><path d="M489.3,493.5c.7.7.934,2.491-1.869,4.983-2.881,2.491-9.031,3.971-11.6,4.282s-4.2.156-7.552,2.1c-3.27,1.946-9.187,3.581-11.445,2.725-.856-.467-.934-2.1-.934-2.1Z" transform="translate(-448.971 -481.588)" fill="#52c5d7"/><g transform="translate(5.061 8.798)"><path d="M453.5,493.081c.311,2.569.311,8.953,1.791,11.523,3.192,1.246,8.564-.389,12.223-2.8,3.659-2.336,7.163-1.246,12.223-2.647,4.983-1.4,8.642-4.126,8.953-6.54.311-2.647-8.875-1.4-15.26-1.246a27.407,27.407,0,0,1-11.678-1.869Z" transform="translate(-453.5 -489.5)" fill="#1294a9"/><g clip-path="url(#a)"><path d="M469,493.994s.078-3.737,1.246-5.294" transform="translate(-456.932 -489.323)" fill="#1294a9" stroke="#afdfe2" stroke-linecap="round" stroke-miterlimit="10" stroke-width="0.525"/></g><g clip-path="url(#a)"><path d="M475.5,494.294s.078-3.737,1.246-5.294" transform="translate(-458.372 -489.389)" fill="#1294a9" stroke="#afdfe2" stroke-linecap="round" stroke-miterlimit="10" stroke-width="0.525"/></g><g clip-path="url(#a)"><path d="M482,494.694s.078-3.737,1.246-5.294" transform="translate(-459.811 -489.478)" fill="#1294a9" stroke="#afdfe2" stroke-linecap="round" stroke-miterlimit="10" stroke-width="0.525"/></g></g><path d="M447,484.273l5.138,6.306a4.484,4.484,0,0,1,1.869.389c.623.389,1.946,2.024,2.725,1.791,3.192-.934,3.581-5.683,3.581-5.683l-5.45-8.876Z" transform="translate(-447 -478.2)" fill="#f5978d"/></g><path d="M371.7,372.678s-28.417,8.1-37.449,1.791-5.45,5.372-5.45,5.372.234,3.893,2.336,4.36c2.1.545,12.69-.779,20.476,0s11.133,1.557,12.3.156S371.7,372.678,371.7,372.678Z" transform="translate(-53.554 -71.736)" fill="#1e4275"/><path d="M538.7,231.07s3.036,6.462,11.678,13.313,19.308,7.863,25.225,7.786c5.45-.078,23.512.311,27.794.078.389,0,.7-.078.856-.078,0,0,3.192,10.2,8.642,11.056,0,0,1.791,8.1,5.995,9.031l-2.336-14.481-7.786-11.133L550.378,227.8Z" transform="translate(-99.571 -39.977)" fill="#9a958d" opacity="0.2"/><path d="M271.011,266.7,259.8,279.313s2.959,24.369,17.673,25.615c14.793,1.324,27.794-3.348,27.794-4.126V274.408s-8.564-.156-8.1-3.348C297.716,267.556,271.011,266.7,271.011,266.7Z" transform="translate(-38.6 -48.499)" fill="#f48a87"/><g transform="translate(296.084 402.123)"><path d="M390.888,531.646c.389.934-.078,2.647-3.659,3.815s-9.81.078-12.223-.545-3.893-1.479-7.63-1.012-9.732-.311-11.445-1.946c-.545-.779,0-2.258,0-2.258Z" transform="translate(-355.689 -508.29)" fill="#3dc0cb"/><g transform="translate(0.123 10.043)"><path d="M358.691,515.178c-.7,2.491-3.192,8.253-2.8,11.211,2.414,2.414,7.941,2.959,12.223,2.18,4.2-.779,7.007,1.635,12.223,2.336,5.061.7,9.5-.389,10.666-2.491,1.324-2.258-7.474-4.749-13.469-7.085a28.155,28.155,0,0,1-9.966-6.228Z" transform="translate(-355.847 -515.1)" fill="#1294a9"/><g clip-path="url(#d)"><path d="M373,521.26s1.479-3.348,3.192-4.36" transform="translate(-359.646 -515.499)" fill="#1294a9" stroke="#8ec8c5" stroke-linecap="round" stroke-miterlimit="10" stroke-width="0.525"/></g><g clip-path="url(#d)"><path d="M378.8,524.06s1.479-3.348,3.192-4.36" transform="translate(-360.93 -516.119)" fill="#1294a9" stroke="#8ec8c5" stroke-linecap="round" stroke-miterlimit="10" stroke-width="0.525"/></g><g clip-path="url(#d)"><path d="M384.6,526.86s1.479-3.348,3.192-4.36" transform="translate(-362.214 -516.739)" fill="#1294a9" stroke="#8ec8c5" stroke-linecap="round" stroke-miterlimit="10" stroke-width="0.525"/></g></g><path d="M360.279,502.2l-.779,10.043a3.959,3.959,0,0,1,1.557,1.09c.389.623.934,2.569,1.791,2.647,3.27.389,5.45-3.737,5.45-3.737l1.946-9.031Z" transform="translate(-356.533 -502.2)" fill="#f5978d"/></g><path d="M373.507,386.955s-4.36,13.469-5.45,35.969S355.6,479.136,355.6,479.136s8.019,4.671,14.481,2.881c0,0,24.6-52.008,25.848-75.364s-5.45-30.052-5.45-30.052H378.334Z" transform="translate(-59.579 -72.263)" fill="#1e4275"/><path d="M299.329,271.154s-4.671,15.182-22.033,5.45a4.336,4.336,0,0,0-2.414-.467c-1.324.078-.779,7.786-.623,8.72s.623,5.294.623,5.294a12.033,12.033,0,0,1-4.2-4.671,11.208,11.208,0,0,1-.623-8.253c.389-3.815,2.8-5.528,2.881-7.007C273.013,262.745,299.329,271.154,299.329,271.154Z" transform="translate(-40.747 -48.617)" fill="#f16a65"/><path d="M291.273,213.971s13.08,11.367,12.457,25.77-7.941,27.094-15.493,27.094c-7.474,0-22.734-9.109-24.057-27.794S279.439,211.324,291.273,213.971Z" transform="translate(-39.547 -36.84)" fill="#f7afab"/><path d="M216.7,286.67l-2.414-3.27s-12.223,12.768-9.5,24.135,9.343,21.488,24.525,19.542c0,0,9.421,29.507,13.858,31.921a33.475,33.475,0,0,0,6.228,2.881s.467,18.14,15.649,30.6c0,0,27.016,20.242,50.606,4.438l16.428-9.187s-1.09,13.936-1.479,20.165-8.019,35.891-8.019,35.891l5.995,1.869,29.04-39.551s28.807,41.5,31.921,42.743l6.151.623V451.8l7.4-2.414L352.557,365.3l-36.436,10.9-35.113-7.163-25.692-64.776-30.987-9.81Z" transform="translate(-26.34 -51.625)" fill="#751414" fill-rule="evenodd" opacity="0.28"/><path d="M382.794,376.6h-4.282l-4.9,10.355s-4.36,13.469-5.45,35.969c-1.012,22.5-12.457,56.212-12.457,56.212a21.658,21.658,0,0,0,2.958,1.4c3.971-2.958,16.038-47.648,17.284-68.435A135.5,135.5,0,0,1,382.794,376.6Z" transform="translate(-59.618 -72.263)" fill="#193a60"/><path d="M331.669,341.7s1.168-10.978,3.893-7.708c2.8,3.27,10.822,20.632,16.116,21.566,0,0,9.576,1.869,16.194-9.965s10.433-22.267,12.146-25.3,5.45-2.725,9.576-2.414,6.462-.234,8.175-2.881A52.85,52.85,0,0,0,401.116,309l-22.967.779s-6.306,8.486-6.073,8.876-12.068,24.057-12.068,24.057l-9.265.545-3.893-11.6-6.384-8.1-7.786-5.45-3.581,4.749Z" transform="translate(-53.737 -57.741)" fill="#9a958d" opacity="0.2"/><path d="M344.3,338.644s8.8,14.637,10.043,15.883c1.479,1.557,10.043-13.235,10.043-13.235l-2.959-3.348L356.679,327.9Z" transform="translate(-57.129 -61.918)" fill="#f48a87"/><path d="M387.618,386.936c7.863,16.895,33.089,71.783,33.089,71.783a19.975,19.975,0,0,1-13.08,7.552s-26.237-36.359-38.149-53.72c-7.241-10.588-4.516-15.883-8.253-21.41a53.554,53.554,0,0,1-11.6,9.187c-6.618,3.893-33.244,24.213-56.6,13.391s-20.943-27.95-20.943-27.95l41.886-7.941s-14.248,13.858,28.184-1.635c28.184-10.277,35.736-7.318,38.071-3.659C382.635,376.348,387.618,386.936,387.618,386.936Z" transform="translate(-41.153 -70.61)" fill="#88b6e1"/><path d="M361.425,395.385c3.815,5.528,1.012,10.744,8.253,21.41,11.912,17.362,38.149,53.72,38.149,53.72a13.428,13.428,0,0,0,2.8-.623c-.389.078-19.23-33.711-25.459-41.341S367.575,406.83,367.186,402c-.311-4.827-5.138-10.043-5.138-10.043s-24.758,20.242-51.463,22.812c-20.71,1.946-26.938-17.6-28.729-26.471l-9.576,1.791s-2.414,17.128,20.943,27.95c23.279,10.822,49.983-9.576,56.6-13.391A57.841,57.841,0,0,0,361.425,395.385Z" transform="translate(-41.211 -74.854)" fill="#4e7eab"/><path d="M639.6,255.5s4.749,3.971,5.995,4.36-3.192,2.024-4.9.545C640.067,259.782,639.6,255.5,639.6,255.5Z" transform="translate(-121.843 -46.096)" fill="#f28c8c"/><path d="M621.172,255.06l8.019,10.277s-1.557,1.479-4.516-1.557a40.362,40.362,0,0,1-4.749-6.306l5.061,11.678s-1.869.545-4.2-3.114a41.511,41.511,0,0,1-3.114-5.528l1.012,9.031a6.745,6.745,0,0,1-2.725-3.036,12.509,12.509,0,0,1-1.09-3.27l-.779-3.971c-1.946-1.479-6.228-2.881-8.564-12.379,0,0-19.853-1.246-28.962-1.012-9.187.156-17.985-1.713-28.106-8.486-10.2-6.7-10.355-9.81-10.355-10.9s2.258-4.671,4.126-6.384,5.138-5.528,16.583-4.827a.588.588,0,0,1,.311.078s4.126.623,6.618,2.725c1.946,1.635,3.737,5.138,2.258,7.007,0,0,11.912,1.791,17.05,4.749s22.033,9.81,24.447,10.043c1.713.156,7.085,6.151,10.2,9.888l2.024,2.569h0l.389.467c.779.934,9.576,7.708,9.576,7.708S628.257,262.378,621.172,255.06Z" transform="translate(-99.404 -37.205)" fill="#f7afab"/><path d="M645.024,262.069,643,259.5C643.934,260.668,644.635,261.524,645.024,262.069Z" transform="translate(-122.598 -46.976)" fill="#f7afab"/><path d="M646.056,290.056H645.9a.272.272,0,0,0,.078-.156A.242.242,0,0,0,646.056,290.056Z" transform="translate(-123.238 -53.64)" fill="#f7afab"/><path d="M302.661,276.163c-.078-.7,14.092,1.168,20.865,11.756s15.1,28.417,15.1,28.417-7.163,8.019-12.457,10.744l-5.45-9.343s-10.355,26.627,5.45,37.371a87.657,87.657,0,0,1-9.576,7.63c-5.917,4.126-8.253,3.893-18.919,8.253s-18.919,12.69-17.907,15.571c0,0-12.223-5.45-15.026-30.831s-2.258-75.909-2.258-75.909,11.289,18.685,25.848,17.362C296.2,296.717,303.907,285.661,302.661,276.163Z" transform="translate(-39.15 -50.384)" fill="#3a86c6"/><path d="M270.313,373.934s-.623,12.924,5.45,19.23c3.893,4.049,22.5-2.958,22.5-2.958s-18.062,8.175-17.907,15.571c0,0-7.085-3.114-11.912-16.505s-3.036-27.172-3.036-27.172Z" transform="translate(-39.767 -69.366)" fill="#3176a9"/><path d="M304.534,276.134s.311,10.666-5.995,16.661c-7.552,7.163-13.08,4.749-20.554,1.168,0,0-5.061-3.348-7.085-5.839l.623,2.491s10.666,13.235,22.89,8.019c9.031-3.893,11.99-11.756,10.744-22.734Z" transform="translate(-41.04 -50.537)" fill="url(#g)"/><path d="M275.5,338.7s3.581,2.725,11.523,1.168c0,0-7.63,3.659-11.523,2.569C271.527,341.425,275.5,338.7,275.5,338.7Z" transform="translate(-41.679 -64.326)" fill="#3176a9"/><path d="M271.507,271.9a37.62,37.62,0,0,1,1.168,10.121s1.246,10.043,3.27,21.722,5.372,30.675,6.462,34.334c3.192,10.744-1.791,18.3-5.606,20.4-3.893,2.1-10.588,2.569-10.588,2.569L264.5,350.223S265.9,275.092,271.507,271.9Z" transform="translate(-39.651 -49.537)" fill="#9a958d" opacity="0.2"/><path d="M246.6,346.1s6.306,16.817,10.277,19.386c4.438,2.958,5.995,3.737,8.253,3.114s1.4-16.038.934-18.608c-.545-2.569-6.618-19.7-6.618-19.7l-7.085-3.893Z" transform="translate(-35.73 -61.557)" fill="#f48a87"/><path d="M264.974,369.295c-6.851-.779-15.338-19.62-15.415-22.422-.156-2.881,8.408-9.888,8.408-9.888l.234-7.085-7.63,3.348L246.6,346.873s6.306,16.817,10.277,19.386c4.438,2.958,5.995,3.737,8.253,3.114a.076.076,0,0,0,.078-.078Z" transform="translate(-35.731 -62.329)" fill="#f16a65"/><path d="M276.559,214.461s-11.367,22.345-22.5,26.86c-4.2,1.713,5.372,14.87,5.372,14.87a10.646,10.646,0,0,1-2.18,7.4c-2.414,2.8-5.216,2.18-9.109,3.893-5.606,2.491-11.289,8.642-11.367,15.571-.078,5.761,4.048,11.912,4.048,11.912l-1.09,6.773S218.79,313.8,210.3,294.808c-7.474-16.661,11.211-29.04,16.038-33.167,4.9-4.126,12.768-9.109,16.973-28.729s12.223-27.872,24.447-28.729,23.279,8.331,24.525,18.53c1.324,10.2-.856,14.87-.856,14.87S287.148,219.444,276.559,214.461Z" transform="translate(-27.357 -34.713)" fill="#1b154c"/><g transform="translate(181.113 169.428)"><path d="M281.752,207.769h0a24.16,24.16,0,0,0-14.092-3.581c-12.223.856-20.242,9.031-24.447,28.651s-12.068,24.6-16.973,28.729-23.512,16.583-16.038,33.167c3.971,8.953,10.744,10.978,16.817,10.666-6.073-.078-14.715-4.36-15.182-15.649-.545-13.235,15.8-21.488,27.405-32.388s10.666-26.627,15.26-40.641S281.752,207.769,281.752,207.769Z" transform="translate(-208.454 -204.145)" fill="url(#h)"/><path d="M235.9,333.942h0a2.273,2.273,0,0,0,.7-.156C236.834,333.709,236.6,333.709,235.9,333.942Z" transform="translate(-214.532 -232.843)" fill="url(#i)"/></g><rect width="6.773" height="11.367" transform="translate(219.607 211.599)" fill="#f16a65"/><path d="M260.731,279.2c-.779,1.557-3.27,2.881-9.421,6.851s-16.583,11.99-5.917,49.594a19.853,19.853,0,0,1,16.817-11.367C274.823,323.188,260.731,279.2,260.731,279.2Z" transform="translate(-34.455 -51.202)" fill="#3a86c6"/><path d="M664.264,199.257l-5.45-1.557L655.7,219.11A43.609,43.609,0,0,0,664.264,199.257Z" transform="translate(-125.365 -33.417)" fill="#3176a9"/><path d="M251.206,286.073c-6.228,3.971-16.583,11.99-5.917,49.594a19.467,19.467,0,0,1,4.048-5.761h0c-6.384-23.98-1.713-34.957,3.27-38.85,4.983-3.971,8.1-11.756,8.1-11.756C259.926,280.857,257.435,282.1,251.206,286.073Z" transform="translate(-34.433 -51.224)" fill="#3176a9"/><path d="M260.932,275.216s-1.246,59.637-2.024,62.907c-1.713,7.007,5.45,12.3,6.384,12.924,1.791,1.168,12.145-2.491,12.145-11.912,0-6.228-7.63-49.438-9.343-56.212-1.791-6.7.545-17.829.545-17.829l-5.45.856s-4.048-1.4-4.516-7.4A77.223,77.223,0,0,0,257.2,248.2s-.078.156-.856,4.593-2.336,15.415-.156,16.973C258.441,271.323,260.932,275.216,260.932,275.216Z" transform="translate(-37.583 -44.33)" fill="#f7afab"/><path d="M659.554,155.58s0,13.08-1.324,15.1c-1.246,2.024-8.331-17.284-8.331-17.284Z" transform="translate(-124.092 -23.719)" fill="url(#j)"/><path d="M646.729,159.8s3.348,14.637,2.958,26-4.048,24.291-4.671,24.914-26.082,4.048-35.035-12.535c-8.953-16.505,5.839-27.95,5.839-27.95Z" transform="translate(-114.636 -25.091)" fill="#f7afab"/><g transform="translate(492.535 134.701)"><path d="M615.92,170.311s-8.1,6.228-8.72,16.116a29.978,29.978,0,0,1,5.138,2.414,14.509,14.509,0,0,1,5.294-11.367c21.644-1.635,27.794-11.211,29.507-15.96-.234-1.09-.389-1.713-.389-1.713Z" transform="translate(-607.2 -159.8)" fill="#f28c8c"/><path d="M610.69,207.456a13.314,13.314,0,0,1-1.09-.856c.311.623.623,1.324.934,2.024a20.028,20.028,0,0,0,3.114,4.36C612.792,212.128,610.69,207.456,610.69,207.456Z" transform="translate(-607.731 -170.164)" fill="#f28c8c"/></g><path d="M609.239,193.558s-4.126-4.983-6.618-2.725S600.6,202.2,608.694,205C608.694,205,614.689,203.913,609.239,193.558Z" transform="translate(-113.441 -31.791)" fill="#f7afab"/><path d="M596.152,169.1s-1.479,5.216,4.282,18.763c0,0,1.012-5.839,7.63,1.012,0,0-1.246-9.654,6.54-14.014S596.152,169.1,596.152,169.1Z" transform="translate(-112.256 -27.155)" fill="url(#k)"/><path d="M595.827,143.566s-9.965,8.876,1.09,20.71c11.055,11.912,57.3,1.168,53.331-30.675,0,0-4.438,5.995-14.248,5.995C626.191,139.673,607.817,133.678,595.827,143.566Z" transform="translate(-111.224 -19.371)" fill="#1b154c"/><path d="M609.239,193.558s-4.126-4.983-6.618-2.725S600.6,202.2,608.694,205c-5.294-2.647-6.073-10.588-4.438-12.223,1.557-1.557,5.528,2.024,5.683,2.18A5.889,5.889,0,0,0,609.239,193.558Z" transform="translate(-113.444 -31.791)" fill="#f28c8c"/><g transform="translate(516.542 117.022)"><path d="M638,140.7c.934.234,1.791.389,2.725.545s1.869.311,2.725.389a32.886,32.886,0,0,0,5.528.078,17.521,17.521,0,0,0,5.294-1.246,11.374,11.374,0,0,0,4.438-3.27,9.551,9.551,0,0,1-1.791,2.18,15.77,15.77,0,0,1-2.336,1.635,15.354,15.354,0,0,1-5.528,1.479,23.241,23.241,0,0,1-5.683-.311A22.059,22.059,0,0,1,638,140.7Z" transform="translate(-638 -137.2)" fill="#2f3178"/></g><path d="M632.12,286.925s-5.761-7.318-6.306-6.929-.234,2.414,0,3.5C626.047,284.667,630.641,287.158,632.12,286.925Z" transform="translate(-118.756 -51.457)" fill="#f28c8c"/><g transform="translate(482.848 127.106)"><path d="M596.376,150.1a17.426,17.426,0,0,0-.779,2.881,8.627,8.627,0,0,0-.156,1.479,9.373,9.373,0,0,0,0,1.479,13.709,13.709,0,0,0,1.246,5.606,6.435,6.435,0,0,0,.7,1.246,4.346,4.346,0,0,0,.389.623l.467.545c.311.389.545.779.856,1.168s.7.7,1.012,1.09a6.725,6.725,0,0,0,1.09,1.012l1.168.934c.779.545,1.635,1.09,2.413,1.713-.856-.467-1.791-.934-2.647-1.4l-1.246-.856a6.834,6.834,0,0,1-1.168-.934,14.419,14.419,0,0,1-3.659-4.749,12.985,12.985,0,0,1-1.168-5.917A12.574,12.574,0,0,1,596.376,150.1Z" transform="translate(-594.887 -150.1)" fill="#2f3178"/></g><g transform="translate(502.52 121.955)"><path d="M620,169.192q2.92-.467,5.606-1.168a45.4,45.4,0,0,0,5.528-1.713,54.478,54.478,0,0,0,10.277-4.983,32.68,32.68,0,0,0,8.408-7.63,29.822,29.822,0,0,0,5.061-10.2c-.234.934-.389,1.869-.7,2.8l-.467,1.4-.545,1.324a24.989,24.989,0,0,1-2.881,5.061,31.744,31.744,0,0,1-8.486,7.941,44.536,44.536,0,0,1-10.51,4.9A46.847,46.847,0,0,1,620,169.192Z" transform="translate(-620 -143.5)" fill="#2f3178"/></g><g transform="translate(530.177 119.133)"><path d="M663.363,139.9a7.351,7.351,0,0,1-1.012,3.114,16.116,16.116,0,0,1-4.126,5.061c-.389.311-.856.7-1.324,1.012s-.934.545-1.4.856c.779-.779,1.557-1.479,2.336-2.258s1.479-1.557,2.18-2.336a15.507,15.507,0,0,0,1.869-2.569A20.113,20.113,0,0,0,663.363,139.9Z" transform="translate(-655.5 -139.9)" fill="#2f3178"/></g><path d="M574.673,227.147s-5.45-.545-6.773-1.324c0,0,7.085.779,7.241-1.324A3.833,3.833,0,0,1,574.673,227.147Z" transform="translate(-106.132 -39.307)" fill="#f28c8c"/><path d="M604.561,278.8s.389,4.749,8.175,5.216H602.692s-1.012,4.048,9.343,3.27l-5.138,3.192-4.2.234s-.156,2.18,3.114,2.18a30.4,30.4,0,0,0,7.474-1.324l-6.7,4.516s.856,1.479,3.815.856a21.793,21.793,0,0,0,6.384-2.725s4.516,8.253,11.678,8.642c7.163.467,7.941.623,14.248,3.815s22.267,12.846,41.731,7.085V302.78L623.4,290.4l-5.683-7.552-7.63-1.869Z" transform="translate(-113.305 -51.151)" fill="#9a958d" opacity="0.2"/><path d="M704.513,305.538c-1.4,1.635-8.253,2.8-11.056,3.192-.389.078-.7.078-.934.156-3.348.467-7.863,1.012-13.78,1.557-28.106,2.8-41.108-11.367-47.492-9.966-8.175,1.791-13.78-8.408-13.78-8.408l-3.737,2.491a13.616,13.616,0,0,1-3.192,1.557,6.074,6.074,0,0,1-4.048,0l7.4-5.917a33.464,33.464,0,0,1-6.151,1.557c-4.282.856-5.138-1.09-5.138-1.09l12.146-4.516s-3.893.156-8.175,0-3.893-1.791-3.893-1.791l13-1.09c-10.2-.389-11.133-4.671-11.133-4.671s10.9,2.258,12.145,2.18a153.361,153.361,0,0,0,23.746,11.133c14.092,5.216,43.988,1.09,43.988,1.09V286s10.978-1.869,17.44-5.528c0,0,2.881,18.607,3.192,21.41C705.369,304.837,704.513,305.538,704.513,305.538Z" transform="translate(-113.29 -51.115)" fill="#f7afab"/><path d="M617.689,304l-.389.156A3.269,3.269,0,0,0,617.689,304Z" transform="translate(-116.971 -56.73)" fill="#f7afab"/><path d="M603.278,296.989a.7.7,0,0,0-.078-.389A1.363,1.363,0,0,0,603.278,296.989Z" transform="translate(-113.882 -55.108)" fill="#f7afab"/><path d="M616.233,283.371C611.951,282.9,605.1,278.7,605.1,278.7S606.112,283.06,616.233,283.371Z" transform="translate(-114.274 -51.18)" fill="#f28c8c"/><path d="M602.7,286.489c.156.467.934,1.246,3.893,1.4,4.282.156,8.175,0,8.175,0L602.7,286.1Z" transform="translate(-113.746 -52.805)" fill="#f28c8c"/><path d="M607.839,295.157a50.09,50.09,0,0,0,5.761-1.4l.389-.156c-3.659.389-11.289.467-11.289.467S603.556,295.936,607.839,295.157Z" transform="translate(-113.747 -54.448)" fill="#f28c8c"/><path d="M611.749,299.949a11.392,11.392,0,0,0,3.192-1.557l3.737-2.491L607.7,299.949A6.074,6.074,0,0,0,611.749,299.949Z" transform="translate(-114.843 -54.948)" fill="#f28c8c"/><path d="M635.48,304.308c6.462-1.4,19.464,12.768,47.492,9.966,5.917-.623,10.433-1.09,13.781-1.557a5.75,5.75,0,0,0,.934-.156c2.8-.389,9.654-1.557,11.056-3.192,0,0,.779-.7.545-3.5-.078-1.012-.467-3.815-1.012-7.163h0c1.012,10.043-8.33,11.912-26.627,13.7s-34.724-5.528-39.006-8.253-5.216-1.557-9.576-1.713S621.7,295.9,621.7,295.9,627.384,306.1,635.48,304.308Z" transform="translate(-117.52 -54.925)" fill="#f28c8c"/><path d="M640.884,274.234l-.389-.934C640.417,273.3,640.572,273.611,640.884,274.234Z" transform="translate(-122.048 -50.002)" fill="#f7afab"/><path d="M649.634,284.4H649.4C649.556,284.478,649.634,284.4,649.634,284.4Z" transform="translate(-124.005 -52.435)" fill="#f7afab"/><path d="M645.558,272.948,643.3,269.6C643.534,269.834,644.312,271.235,645.558,272.948Z" transform="translate(-122.663 -49.188)" fill="#f7afab"/><path d="M614.732,257.986c-2.959-.934-8.564-12.535-8.564-12.535s-29.974-1.713-36.981-2.647c-7.007-1.012-20.554-7.318-25.77-13.391-4.671-5.528,3.348-11.6,4.827-12.613a15.35,15.35,0,0,0-5.917,3.737c-1.869,1.713-4.126,5.372-4.126,6.384s.156,4.126,10.355,10.9c10.2,6.7,19,8.642,28.106,8.486s28.962,1.012,28.962,1.012c2.336,9.5,6.618,10.9,8.564,12.379l.779,3.971a12.509,12.509,0,0,0,1.09,3.27,6.745,6.745,0,0,0,2.725,3.036C616.99,269.041,614.732,257.986,614.732,257.986Z" transform="translate(-99.461 -37.559)" fill="#f28c8c"/><path d="M640.789,274.234c.467.856,1.246,2.414,2.647,4.594,1.869,2.958,3.426,3.192,3.971,3.192h.234s-6.851-7.941-7.241-8.72Z" transform="translate(-122.016 -49.991)" fill="#f28c8c"/><path d="M643.278,269.478a.076.076,0,0,0-.078-.078Z" transform="translate(-122.646 -49.148)" fill="#fdc153"/><path d="M260.977,341.478c-.779-2.1.623-21.332.7-31.3.078-10.043,0-34.179,0-34.179-.545-1.635-4.593-5.216-5.216-5.683s-.467-4.2-.467-5.839,1.012-9.732,1.012-9.732l-.311-1.946c-.078.311-.078.623-.156,1.012-.779,4.36-2.336,15.493-.156,16.973,2.258,1.557,4.671,5.45,4.671,5.45s-1.246,59.637-2.024,62.907c-1.713,7.007,5.45,12.3,6.384,12.924a2.342,2.342,0,0,0,1.557.156C261.054,347.161,261.755,343.58,260.977,341.478Z" transform="translate(-37.635 -45.342)" fill="#f48a87"/><path d="M647.949,273.993c-2.8-2.881-4.749-4.593-4.749-4.593l.078.078,2.258,3.348c.7.856,1.479,1.869,2.414,2.881,2.958,3.114,4.516,1.557,4.516,1.557S650.752,276.952,647.949,273.993Z" transform="translate(-122.625 -49.137)" fill="#f28c8c"/><path d="M655.388,271.85,644.8,266.4C651.885,273.718,655.388,271.85,655.388,271.85Z" transform="translate(-122.972 -48.483)" fill="#f28c8c"/><path d="M265.453,251.651s-2.491-2.414-4.9.779c-2.414,3.114,3.737,15.571,10.277,14.092S265.453,251.651,265.453,251.651Z" transform="translate(-38.673 -45.047)" fill="#f7afab"/><path d="M302.6,240.623s-6.7-14.715-13.936-19.853c0,0-10.277,19.931-19.7,25.459-2.024.156-2.881-.311-4.36-.234-1.713.078-1.09.623-1.557.934.078,1.012.467,6.151,4.593,9.265a9.733,9.733,0,0,0,3.426,1.635,29.581,29.581,0,0,0,4.983,4.749c3.036,2.414,7.007,4.9,11.211,5.061,0,0-7.863.156-16.116-8.642a3.279,3.279,0,0,1-1.713.234c-.856-.156-10.433-13.391-10.433-13.391s3.5-4.048,6.151-1.479c0,0,9.5-2.258,22.5-26.86C287.729,217.422,297.071,220.458,302.6,240.623Z" transform="translate(-38.427 -37.715)" fill="#f48a87"/><path d="M344.3,341.235s4.282,7.085,4.749,7.786,4.827,7.786,5.294,8.175l-.623-4.983s-6.306-11.523-6.773-12.613Z" transform="translate(-57.141 -64.498)" fill="#f16a65"/><path d="M707.8,232.2l3.426,42.9-3.426.7Z" transform="translate(-136.586 -40.941)" fill="#3176a9"/><path d="M268.512,269.9h0a2.529,2.529,0,0,1-3.348-1.012l-9.343-17.518a2.551,2.551,0,0,1,1.012-3.348h0a2.529,2.529,0,0,1,3.348,1.012l9.343,17.518A2.529,2.529,0,0,1,268.512,269.9Z" transform="translate(-37.693 -44.374)" fill="#c5c9cb"/><path d="M259.51,254.9l1.635,11.211L257.8,267.59V257.547S257.564,254.822,259.51,254.9Z" transform="translate(-38.193 -45.954)" fill="#f7afab"/><path d="M276.45,321.206l-6.306-4.516-.078-23.668-3.036-1.168-2.1-23.279s-3.737-6.929,0-8.876c0,0,2.258,5.917,2.725,6.851s3.348,5.917,2.569,11.367c-.078.467-.078,1.012-.156,1.557Z" transform="translate(-39.386 -46.928)" fill="#f7afab"/><g transform="translate(556.433 292.994)"><path d="M697.523,412.682c-8.408-4.438-10.51,5.216-7.241,13.235s20.009,35.035,20.865,45.7c.311,4.126,1.09,3.737,1.791.779C716.209,457.916,709.046,418.832,697.523,412.682Z" transform="translate(-688.815 -372.999)" fill="#2b4d3c" fill-rule="evenodd"/><g transform="translate(17.707)"><path d="M720.311,364.965c9.576-8.642,15.649,3.426,13.936,15.182s-14.87,52.864-12.457,67.345c.934,5.606-.234,5.294-2.1,1.635C710.5,430.909,707.075,376.877,720.311,364.965Z" transform="translate(-711.558 -362.031)" fill="#4a8e76" fill-rule="evenodd"/><path d="M723.589,452.81c-.234.545-.623.311-1.246-.623-10.043-33.4,5.606-83.228,5.606-83.383a.465.465,0,0,1,.623-.311.53.53,0,0,1,.311.623C728.961,369.348,713.079,419.877,723.589,452.81Z" transform="translate(-713.202 -363.455)" fill="#1a7256" fill-rule="evenodd"/></g><g transform="translate(25.694 29.755)"><path d="M743.526,401.145c9.343-4.048,10.744,6.462,6.618,14.793-4.126,8.253-24.213,35.658-26.082,47.025-.7,4.36-1.479,3.893-1.946.7C719.857,447.859,730.757,406.673,743.526,401.145Z" transform="translate(-721.817 -400.249)" fill="#a4c669" fill-rule="evenodd"/><path d="M723.479,467.06c-.312.389-.545,0-.779-.779.856-27.327,24.836-60.572,24.914-60.727a.389.389,0,0,1,.623.467C748.237,406.177,723.868,439.888,723.479,467.06Z" transform="translate(-722.013 -401.388)" fill="#5f9650" fill-rule="evenodd"/></g><g transform="translate(10.265 83.904)"><path d="M726.478,476.9H708.571l-4.671,4.2,3.815,14.715h19.62L731.15,481.1Z" transform="translate(-702.421 -471.372)" fill="#3d405f" fill-rule="evenodd"/><path d="M730.729,469.8H703.479A1.531,1.531,0,0,0,702,471.279v6.7a1.531,1.531,0,0,0,1.479,1.479h27.249a1.531,1.531,0,0,0,1.479-1.479v-6.7A1.478,1.478,0,0,0,730.729,469.8Z" transform="translate(-702 -469.8)" fill="#3d405f" fill-rule="evenodd"/><path d="M703.9,482.3l.779,3.036h25.692l.779-3.036Z" transform="translate(-702.421 -472.568)" fill="#101537" fill-rule="evenodd"/></g></g><path d="M378.192,313.6s-16.116,21.177-19.075,23.357c-3.893,2.881-5.216,8.642-3.27,12.3,0,0,.389,2.8,1.946,2.647,1.479-.156,8.1,1.168,14.325-9.265,6.228-10.355,12.3-26.082,12.3-26.082Z" transform="translate(-59.452 -58.764)" fill="#f7afab"/><path d="M408.892,302.984a10.727,10.727,0,0,0-8.408,3.893c-3.036-2.336-8.8-2.959-8.8-2.959a9.177,9.177,0,0,0,3.737-1.635c2.024-.156,2.958-2.336,2.725-2.491a19.922,19.922,0,0,0-4.282.779c-1.557.389-4.749.7-5.606,1.012s-2.1,2.725-2.647,4.438-2.414,6.306-2.414,6.306,2.881,4.9,7.085,2.8c0,0,1.635-3.036,3.036-2.647s7.085.545,9.187.856c2.024.311,3.5.078,4.36-.934a73.9,73.9,0,0,1,6.306-5.45c1.324-.934-.078-1.246-.078-1.246s1.012-.934-1.946-1.4c0,0,.779-1.012-1.246-1.012C409.827,303.374,410.372,303.062,408.892,302.984Z" transform="translate(-65.635 -55.776)" fill="#f7afab"/><path d="M390.7,310.147c3.5-4.438,14.948,2.725,14.948,2.725a20.154,20.154,0,0,1,9.031-5.372s-4.2.234-9.109,4.516a45.957,45.957,0,0,0-6.228-2.725c-1.869-.467-5.839-1.946-8.408.311,0,.078-.078.078-.078.156C390.778,309.914,390.778,309.991,390.7,310.147Z" transform="translate(-67.287 -57.488)" fill="#f28c8c"/><path d="M409.189,310.37c2.647-3.815,7.552-4.671,7.552-4.671a8.625,8.625,0,0,0-4.9,1.557c-2.569,1.713-3.036,2.647-3.036,2.647Z" transform="translate(-71.274 -57.094)" fill="#f28c8c"/><path d="M407.889,308.993c1.869-3.815,7.241-4.593,7.241-4.593a11.421,11.421,0,0,0-4.2,1.168A9.592,9.592,0,0,0,407.5,308.6Z" transform="translate(-70.99 -56.81)" fill="#f28c8c"/><path d="M387.566,300.585c-1.557.389-4.749.7-5.606,1.012s-2.1,2.725-2.647,4.438c-.467,1.4-1.791,4.827-2.258,5.995-3.737,4.827-15.493,20.087-17.907,21.877a10.709,10.709,0,0,0-4.049,7.085c3.426-6.618,4.983-4.2,8.72-9.265,2.258-3.036,11.678-14.715,14.014-18.14.467-.7.779-1.09.779-1.09A15.117,15.117,0,0,0,379,310.94c1.869-6.54,3.426-7.863,4.594-8.486,1.324-.623,8.253-2.569,8.253-2.569C391.692,299.65,389.2,300.2,387.566,300.585Z" transform="translate(-59.474 -55.745)" fill="#f48a87"/><path d="M259.446,254.9s-1.713-.389-1.713,2.569-.234,10.666-.234,10.666,1.012-6.773.934-8.486C258.434,257.932,258.356,255.129,259.446,254.9Z" transform="translate(-38.131 -45.949)" fill="#f48a87"/><path d="M266.125,268.631h0c-.078-.078-3.114-7.007-1.09-9.031a2.8,2.8,0,0,0-1.324,1.479,4.629,4.629,0,0,0-.311,1.869,11.509,11.509,0,0,0,1.012,4.2c1.09,3.114,0,3.426,0,3.426h0C266.592,270.266,266.125,268.631,266.125,268.631Z" transform="translate(-39.423 -46.986)" fill="#f48a87"/><path d="M330.558,305.7s4.516,10.588,2.258,18.685-13.313,8.8-16.116,8.1C316.622,332.482,335.541,331.782,330.558,305.7Z" transform="translate(-51.087 -57.057)" fill="#3176a9"/><path d="M338.023,323l7.4,12.924-2.647,1.635-5.372-9.343Z" transform="translate(-55.631 -60.868)" fill="#3176a9"/><g transform="translate(184.464 232.391)"><path d="M228.758,284.9c-.934.7-1.946,1.479-2.8,2.258-.934.779-1.869,1.557-2.725,2.414a51.823,51.823,0,0,0-4.9,5.216,24.725,24.725,0,0,0-2.1,2.881,24.24,24.24,0,0,0-1.713,3.114,16.46,16.46,0,0,0-1.635,6.929,14.473,14.473,0,0,1,.078-3.659,13.878,13.878,0,0,1,1.012-3.5,24.349,24.349,0,0,1,3.815-6.228,40.661,40.661,0,0,1,5.138-5.216A36.021,36.021,0,0,1,228.758,284.9Z" transform="translate(-212.791 -284.9)" fill="#2f3178"/></g><g transform="translate(224.453 173.261)"><path d="M276.613,209.2a8.887,8.887,0,0,0-2.725,1.012c-.389.234-.779.467-1.246.779a13.555,13.555,0,0,0-1.09.934,16.734,16.734,0,0,0-3.5,4.516,26.57,26.57,0,0,0-1.324,2.569c-.389.856-.7,1.791-1.09,2.647-.311.934-.623,1.791-.856,2.725s-.467,1.869-.779,2.8c.078-.934.311-1.946.389-2.881.156-.934.467-1.869.7-2.881l.934-2.8.623-1.324a10.879,10.879,0,0,1,.7-1.324,14.872,14.872,0,0,1,3.737-4.516A9.283,9.283,0,0,1,276.613,209.2Z" transform="translate(-264 -209.2)" fill="#2f3178"/></g><g transform="translate(227.733 187.863)"><path d="M280.345,227.9a34.9,34.9,0,0,1-2.258,4.516,36,36,0,0,1-2.725,4.282,31.506,31.506,0,0,1-3.192,3.893A15.269,15.269,0,0,1,268.2,243.7a8.246,8.246,0,0,1,.934-.779l.856-.856a12.229,12.229,0,0,0,1.635-1.869,48.741,48.741,0,0,0,3.036-3.971c.934-1.324,1.869-2.725,2.8-4.126Z" transform="translate(-268.2 -227.9)" fill="#2f3178"/></g><g transform="translate(272.244 142.671)"><path d="M341.357,206.5s2.958,6.929-1.557,11.834c0,0,12.068-.934,13.235-8.72Z" transform="translate(-328.39 -178.087)" fill="#f6921e"/><path d="M341.357,206.5s2.958,6.929-1.557,11.834c0,0,12.068-.934,13.235-8.72Z" transform="translate(-328.39 -178.087)" fill="#f6921e"/><path d="M373.225,190.711c-1.246,9.5-13,15.727-26.315,13.936-13.235-1.791-22.967-10.9-21.644-20.4,1.246-9.5,13.08-15.727,26.315-13.936S374.47,181.213,373.225,190.711Z" transform="translate(-325.145 -170.006)" fill="#f6921e"/><path d="M370.75,186.365c-.467,3.5-6.384,5.606-13.235,4.749-6.851-.934-11.99-4.516-11.523-8.019s6.384-5.606,13.235-4.749S371.217,182.783,370.75,186.365Z" transform="translate(-329.755 -171.81)" fill="#fff" opacity="0.25"/><g transform="translate(11.788 12.286)"><g transform="translate(0 4.978)"><path d="M345.69,194.22a2.671,2.671,0,0,1-1.946,3.27,2.691,2.691,0,1,1,1.946-3.27Z" transform="translate(-340.307 -192.18)" fill="#fff"/><path d="M342.866,192.2c-.156,0-.311.078-.545.078a2.733,2.733,0,0,0-1.946,3.27,2.8,2.8,0,0,0,3.27,1.946,2.142,2.142,0,0,0,1.168-.623A3.493,3.493,0,0,1,342.866,192.2Z" transform="translate(-340.286 -192.184)" fill="#d0d2d3"/></g><g transform="translate(9.576 2.486)"><path d="M357.99,191.02a2.671,2.671,0,0,1-1.946,3.27,2.691,2.691,0,1,1-1.324-5.216A2.671,2.671,0,0,1,357.99,191.02Z" transform="translate(-352.607 -188.98)" fill="#fff"/><path d="M355.166,189c-.156,0-.311.078-.545.078a2.733,2.733,0,0,0-1.946,3.27,2.8,2.8,0,0,0,3.27,1.946,2.142,2.142,0,0,0,1.168-.623A3.493,3.493,0,0,1,355.166,189Z" transform="translate(-352.586 -188.984)" fill="#d0d2d3"/></g><g transform="translate(19.148)"><path d="M370.19,187.821a2.671,2.671,0,0,1-1.946,3.27,2.691,2.691,0,1,1-1.324-5.216A2.7,2.7,0,0,1,370.19,187.821Z" transform="translate(-364.88 -185.786)" fill="#fff"/><path d="M367.466,185.8c-.156,0-.311.078-.545.078a2.733,2.733,0,0,0-1.946,3.27,2.8,2.8,0,0,0,3.27,1.946,2.142,2.142,0,0,0,1.168-.623A3.435,3.435,0,0,1,367.466,185.8Z" transform="translate(-364.881 -185.789)" fill="#d0d2d3"/></g></g></g></g></svg>